<?xml version="1.0" encoding="UTF-8"?>
<svg id="Layer_1" data-name="Layer 1" xmlns="http://www.w3.org/2000/svg" version="1.1" xmlns:xlink="http://www.w3.org/1999/xlink" viewBox="0 0 444.3 252.7">
  <defs>
    <style>
      .cls-1 {
        fill: url(#linear-gradient);
      }

      .cls-1, .cls-2, .cls-3 {
        stroke-width: 0px;
      }

      .cls-2 {
        fill: #000;
      }

      .cls-4 {
        stroke-opacity: 0;
        stroke-width: 8px;
      }

      .cls-4, .cls-5 {
        fill: none;
        stroke: #0d3b70;
        stroke-miterlimit: 10;
      }

      .cls-6 {
        isolation: isolate;
        opacity: 0;
      }

      .cls-3 {
        fill: #0d3b70;
      }

      .cls-5 {
        stroke-width: 9px;
      }
    </style>
    <linearGradient id="linear-gradient" x1="102.5" y1="131.9" x2="144" y2="94.2" gradientTransform="translate(0 230.4) scale(1 -1)" gradientUnits="userSpaceOnUse">
      <stop offset=".3" stop-color="#0d3b70"/>
      <stop offset="1" stop-color="#fff"/>
    </linearGradient>
  </defs>
  <g>
    <path class="cls-2" d="M185.3,87.2h27l25.7,73.1h-23.6l-9.6-35.5c-2.1-7-4.2-15.9-6.2-23.2h-.5c-1.8,7.4-3.9,16.2-6,23.2l-9.6,35.5h-22.8l25.7-73.1h0ZM178,129.8h41.3v15h-41.3v-15Z"/>
    <path class="cls-2" d="M244.7,87.2h55v16.2h-32.7v13.9h28v16.2h-28v26.8h-22.3v-73.1h0Z"/>
    <path class="cls-2" d="M314.3,87.2h24.9c25.7,0,43.3,10.4,43.3,36.2s-17.7,36.9-42,36.9h-26.2v-73.1h0ZM337.9,144.7c12.2,0,21.8-4.3,21.8-21.4s-9.6-20.7-21.8-20.7h-1.3v42.1h1.3Z"/>
  </g>
  <image class="cls-6" width="245" height="81" transform="translate(141.6 74.2)" xlink:href="AFD FINAL ALL BLUE-1.png"/>
  <rect class="cls-3" x="184.9" y="70" width="194" height="15.2"/>
  <polyline class="cls-3" points="146.1 87.8 182.2 87.8 120.6 157.4 81.9 157.4"/>
  <polyline class="cls-1" points="124.6 137.3 142.3 115.8 88.8 89.8"/>
  <ellipse class="cls-5" cx="222.1" cy="126.4" rx="215.5" ry="120.6"/>
  <g>
    <path class="cls-2" d="M87.9,195.8c0-5.2,3.6-8.2,7.5-8.2s3.7,1,4.8,2.1l-2.2,2.6c-.8-.7-1.5-1.1-2.6-1.1-1.8,0-3.4,1.7-3.4,4.5s1.3,4.6,3.4,4.6,2.2-.6,2.8-1.3l2.2,2.6c-1.3,1.5-3.1,2.3-5.1,2.3-4,0-7.4-2.6-7.4-8h0Z"/>
    <path class="cls-2" d="M100.4,187.9h4.4l1.6,6.8c.4,1.7.7,3.3,1.2,4.9h0c.4-1.7.7-3.3,1.2-4.9l1.6-6.8h4.2l-4.6,15.6h-5l-4.6-15.6h0Z"/>
    <path class="cls-2" d="M113.9,201.3c0-1.4,1-2.5,2.4-2.5s2.4,1.1,2.4,2.5-1,2.5-2.4,2.5-2.4-1.1-2.4-2.5Z"/>
    <path class="cls-2" d="M129.5,187.9h5l4.8,15.6h-4.4l-1.8-7.6c-.4-1.5-.8-3.4-1.2-4.9h0c-.3,1.6-.7,3.5-1.1,4.9l-1.8,7.6h-4.2l4.8-15.6h0ZM128.1,197h7.6v3.2h-7.6v-3.2Z"/>
    <path class="cls-2" d="M140.5,187.9h4.6c4.8,0,8,2.2,8,7.7s-3.3,7.9-7.8,7.9h-4.8v-15.6ZM144.8,200.2c2.3,0,4-.9,4-4.6s-1.8-4.4-4-4.4h-.2v9h.2Z"/>
    <path class="cls-2" d="M155.9,187.9h4.1v5.8h4.7v-5.8h4.1v15.6h-4.1v-6.2h-4.7v6.2h-4.1v-15.6Z"/>
    <path class="cls-2" d="M172.2,187.9h4.1v15.6h-4.1v-15.6Z"/>
    <path class="cls-2" d="M184.6,187.9h10.2v3.5h-6v3h5.2v3.5h-5.2v5.7h-4.1v-15.6h0Z"/>
    <path class="cls-2" d="M196.6,195.6c0-5.1,2.9-8,7.2-8s7.2,2.9,7.2,8-2.9,8.2-7.2,8.2-7.2-3-7.2-8.2ZM206.8,195.6c0-2.8-1.2-4.5-3-4.5s-3,1.6-3,4.5,1.2,4.6,3,4.6,3-1.8,3-4.6Z"/>
    <path class="cls-2" d="M213.8,187.9h5.9c3.4,0,6.2,1.1,6.2,5s-2.9,5.3-6.2,5.3h-1.8v5.2h-4.1v-15.6h0ZM219.5,195c1.6,0,2.5-.7,2.5-2.1s-.9-1.8-2.5-1.8h-1.5v3.8h1.5ZM219,197.2l2.8-2.7,5.1,9h-4.6l-3.2-6.3h0Z"/>
    <path class="cls-2" d="M231.5,191.4h-4.1v-3.5h12.4v3.5h-4.1v12.1h-4.1v-12.1h0Z"/>
    <path class="cls-2" d="M241.9,196v-8.1h4.1v8.5c0,2.8.7,3.8,2.3,3.8s2.4-1,2.4-3.8v-8.5h4v8.1c0,5.3-2,7.8-6.4,7.8s-6.5-2.5-6.5-7.8Z"/>
    <path class="cls-2" d="M258.1,187.9h4.2l3.5,7,1.5,3.5h0c-.2-1.7-.5-4-.5-6v-4.5h3.9v15.6h-4.2l-3.5-7-1.5-3.5h0c.2,1.8.5,4,.5,6v4.5h-3.9v-15.6h0Z"/>
    <path class="cls-2" d="M277.1,187.9h5l4.8,15.6h-4.4l-1.8-7.6c-.4-1.5-.8-3.4-1.2-4.9h0c-.3,1.6-.7,3.5-1.1,4.9l-1.8,7.6h-4.2l4.8-15.6h0ZM275.7,197h7.6v3.2h-7.6v-3.2Z"/>
    <path class="cls-2" d="M292.9,187.9h4.6c4.8,0,8,2.2,8,7.7s-3.3,7.9-7.8,7.9h-4.8v-15.6ZM297.2,200.2c2.3,0,4-.9,4-4.6s-1.8-4.4-4-4.4h-.2v9h.2Z"/>
    <path class="cls-2" d="M308.3,187.9h4.1v15.6h-4.1v-15.6Z"/>
    <path class="cls-2" d="M313.9,187.9h4.4l1.6,6.8c.4,1.7.7,3.3,1.2,4.9h0c.4-1.7.7-3.3,1.2-4.9l1.6-6.8h4.2l-4.6,15.6h-5l-4.6-15.6h0Z"/>
    <path class="cls-2" d="M329.3,187.9h4.1v15.6h-4.1v-15.6Z"/>
    <path class="cls-2" d="M336.9,187.9h4.2l3.5,7,1.5,3.5h0c-.2-1.7-.5-4-.5-6v-4.5h3.9v15.6h-4.2l-3.5-7-1.5-3.5h0c.2,1.8.5,4,.5,6v4.5h-3.9v-15.6h0Z"/>
    <path class="cls-2" d="M355.8,187.9h5l4.8,15.6h-4.4l-1.8-7.6c-.4-1.5-.8-3.4-1.2-4.9h0c-.3,1.6-.7,3.5-1.1,4.9l-1.8,7.6h-4.2l4.8-15.6h0ZM354.5,197h7.6v3.2h-7.6v-3.2Z"/>
  </g>
  <g>
    <path class="cls-2" d="M147.1,178.4l1.2-1.2c.7.5,1.5.8,2.3.8s1.3-.3,1.3-.8-.5-.6-1.3-.9l-1.2-.4c-1-.3-1.9-1-1.9-2.1s1.4-2.3,3.3-2.3,2.2.4,3,1l-1.1,1.1c-.6-.4-1.2-.6-1.9-.6s-1.2.2-1.2.7.6.6,1.4.9l1.2.4c1.1.4,1.8,1,1.8,2.1s-1.3,2.4-3.5,2.4-2.5-.4-3.4-1.1h0Z"/>
    <path class="cls-2" d="M155.6,171.6h2.1v3h3.2v-3h2.1v7.8h-2.1v-3.3h-3.2v3.3h-2.1v-7.8Z"/>
    <path class="cls-2" d="M164.8,175.5c0-2.5,1.7-4,4.2-4s4.2,1.5,4.2,4-1.7,4.1-4.2,4.1-4.2-1.5-4.2-4.1ZM171.1,175.5c0-1.6-.8-2.5-2.1-2.5s-2.1.9-2.1,2.5.8,2.6,2.1,2.6,2.1-1,2.1-2.6Z"/>
    <path class="cls-2" d="M176.4,173.1h-2.6v-1.5h7.2v1.5h-2.6v6.3h-2.1v-6.3h0Z"/>
    <path class="cls-2" d="M181.7,175.5c0-2.6,2-4.1,4.4-4.1s2.2.5,2.8,1l-1.1,1.1c-.5-.4-1-.6-1.6-.6-1.3,0-2.3.9-2.3,2.5s.9,2.5,2.2,2.5,1.4-.3,1.8-.7l1.1,1.1c-.8.8-1.8,1.1-3,1.1-2.4,0-4.3-1.4-4.3-4h0Z"/>
    <path class="cls-2" d="M190.4,171.6h3.3c2,0,3.6.6,3.6,2.4s-1.6,2.6-3.6,2.6h-1.2v2.8h-2.1v-7.8h0ZM193.6,175.2c1.1,0,1.7-.4,1.7-1.2s-.6-1-1.7-1h-1.1v2.2h1.1ZM193.4,176.1l1.5-1.1,3,4.4h-2.3l-2.1-3.3h0Z"/>
    <path class="cls-2" d="M199.2,171.6h5.8v1.5h-3.7v1.6h3.2v1.5h-3.2v1.8h3.9v1.5h-6v-7.8h0Z"/>
    <path class="cls-2" d="M208.8,173.1h-2.6v-1.5h7.2v1.5h-2.6v6.3h-2.1v-6.3h0Z"/>
    <path class="cls-2" d="M214.9,171.6h5.8v1.5h-3.7v1.6h3.2v1.5h-3.2v1.8h3.9v1.5h-6v-7.8h0Z"/>
    <path class="cls-2" d="M225.1,175.7h3.5v1.2h-3.5v-1.2Z"/>
    <path class="cls-2" d="M232.3,178.4l1.2-1.2c.7.5,1.5.8,2.3.8s1.3-.3,1.3-.8-.5-.6-1.3-.9l-1.2-.4c-1-.3-1.9-1-1.9-2.1s1.4-2.3,3.3-2.3,2.2.4,3,1l-1.1,1.1c-.6-.4-1.2-.6-1.9-.6s-1.2.2-1.2.7.6.6,1.4.9l1.2.4c1.1.4,1.8,1,1.8,2.1s-1.3,2.4-3.5,2.4-2.5-.4-3.4-1.1h0Z"/>
    <path class="cls-2" d="M240.4,175.5c0-2.5,1.7-4,4.2-4s4.2,1.5,4.2,4-1.7,4.1-4.2,4.1-4.2-1.5-4.2-4.1ZM246.7,175.5c0-1.6-.8-2.5-2.1-2.5s-2.1.9-2.1,2.5.8,2.6,2.1,2.6,2.1-1,2.1-2.6Z"/>
    <path class="cls-2" d="M250.6,171.6h2.1v7.8h-2.1v-7.8Z"/>
    <path class="cls-2" d="M254.9,171.6h2.1v6.3h3.7v1.5h-5.8v-7.8h0Z"/>
    <path class="cls-2" d="M262.3,171.6h2.2l2.4,3.9.9,1.7h0c0-.8-.3-1.9-.3-2.8v-2.8h2v7.8h-2.2l-2.4-3.9-.9-1.7h0c0,.9.3,1.9.3,2.8v2.8h-2v-7.8Z"/>
    <path class="cls-2" d="M273.5,171.6h2.5l2.9,7.8h-2.2l-1.2-4c-.3-.8-.5-1.7-.8-2.5h0c-.2.8-.5,1.7-.7,2.5l-1.2,4h-2.2l2.9-7.8h0ZM272.5,176.2h4.5v1.4h-4.5v-1.4Z"/>
    <path class="cls-2" d="M279.8,171.6h2.1v7.8h-2.1v-7.8Z"/>
    <path class="cls-2" d="M284.1,171.6h2.1v6.3h3.7v1.5h-5.8v-7.8h0Z"/>
    <path class="cls-2" d="M291.5,171.6h2.1v7.8h-2.1v-7.8Z"/>
    <path class="cls-2" d="M295.8,171.6h2.2l2.4,3.9.9,1.7h0c0-.8-.3-1.9-.3-2.8v-2.8h2v7.8h-2.2l-2.4-3.9-.9-1.7h0c0,.9.3,1.9.3,2.8v2.8h-2v-7.8Z"/>
    <path class="cls-2" d="M304.8,175.5c0-2.6,2-4.1,4.5-4.1s2.3.5,2.9,1l-1.1,1.1c-.5-.4-1-.6-1.8-.6-1.4,0-2.5.9-2.5,2.5s.9,2.5,2.6,2.5.8,0,1-.2v-1.4h-1.5v-1.4h3.4v3.6c-.6.5-1.8,1-3.1,1-2.6,0-4.5-1.4-4.5-4h0Z"/>
  </g>
  <rect class="cls-4" x="37.8" y="43.9" width="379.4" height="175.7"/>
  <g>
    <polygon class="cls-3" points="57.4 80.3 58.9 81.5 60.3 80.9 61.4 81.8 63 81.1 64.4 82.3 63.2 86.8 70 92.5 72 91.6 73 92.5 74.8 90.3 76.3 91.6 74.8 93.5 81.9 99.4 94.3 104.3 100.3 109.3 105.1 103.7 65.6 70.6 57.4 80.3"/>
    <polygon class="cls-3" points="73.8 60.9 75.2 62.1 74.8 63.6 76 64.5 75.5 66.2 76.9 67.4 81.2 65.4 88 71.1 87.4 73.2 88.4 74.1 86.7 76.2 88.2 77.5 89.7 75.7 96.9 81.7 103.8 93.1 109.8 98.1 105.1 103.7 65.6 70.6 73.8 60.9"/>
  </g>
  <polyline class="cls-3" points="83.2 67.1 86.6 70 95.6 61 85.1 50.5 81.7 53.9 88.8 60.2"/>
</svg>