<?xml version="1.0" encoding="UTF-8"?>
<svg id="Layer_1" data-name="Layer 1" xmlns="http://www.w3.org/2000/svg" version="1.1" xmlns:xlink="http://www.w3.org/1999/xlink" viewBox="0 0 439.9 250.3">
  <defs>
    <style>
      .cls-1 {
        fill: url(#linear-gradient);
      }

      .cls-1, .cls-2, .cls-3 {
        stroke-width: 0px;
      }

      .cls-2 {
        fill: #000;
      }

      .cls-4 {
        fill: none;
        stroke-opacity: 0;
        stroke-width: 8px;
      }

      .cls-4, .cls-5 {
        stroke: #0d3b70;
        stroke-miterlimit: 10;
      }

      .cls-6 {
        isolation: isolate;
        opacity: 0;
      }

      .cls-3 {
        fill: #0d3b70;
      }

      .cls-5 {
        fill: #fff;
        stroke-width: 9px;
      }
    </style>
    <linearGradient id="linear-gradient" x1="100.3" y1="130.6" x2="141.9" y2="93" gradientTransform="translate(0 227.9) scale(1 -1)" gradientUnits="userSpaceOnUse">
      <stop offset=".3" stop-color="#0d3b70"/>
      <stop offset="1" stop-color="#fff"/>
    </linearGradient>
  </defs>
  <ellipse class="cls-5" cx="220" cy="125.1" rx="215.5" ry="120.6"/>
  <rect class="cls-4" x="35.7" y="42.7" width="379.4" height="175.7"/>
  <g>
    <path class="cls-2" d="M183.1,85.9h27l25.7,73.1h-23.6l-9.6-35.5c-2.1-7-4.2-15.9-6.2-23.2h-.5c-1.8,7.4-3.9,16.2-6,23.2l-9.6,35.5h-22.8l25.7-73.1h0ZM175.9,128.5h41.3v15h-41.3v-15Z"/>
    <path class="cls-2" d="M242.6,85.9h55v16.2h-32.7v13.9h28v16.2h-28v26.8h-22.3v-73.1h0Z"/>
    <path class="cls-2" d="M312.1,85.9h24.9c25.7,0,43.3,10.4,43.3,36.2s-17.7,36.9-42,36.9h-26.2v-73.1h0ZM335.7,143.5c12.2,0,21.8-4.3,21.8-21.4s-9.6-20.7-21.8-20.7h-1.3v42.1h1.3Z"/>
  </g>
  <image class="cls-6" width="245" height="81" transform="translate(139.5 72.9)" xlink:href="AFD FINAL ALL BLUE (white)-1.png"/>
  <rect class="cls-3" x="182.8" y="68.7" width="194" height="15.2"/>
  <polyline class="cls-3" points="143.9 86.5 180.1 86.5 118.5 156.1 79.8 156.1"/>
  <polyline class="cls-1" points="122.5 136 140.1 114.6 86.7 88.6"/>
  <g>
    <path class="cls-2" d="M85.8,194.6c0-5.2,3.6-8.2,7.5-8.2s3.7,1,4.8,2.1l-2.2,2.6c-.8-.7-1.5-1.1-2.6-1.1-1.8,0-3.4,1.7-3.4,4.5s1.3,4.6,3.4,4.6,2.2-.6,2.8-1.3l2.2,2.6c-1.3,1.5-3.1,2.3-5.1,2.3-4,0-7.4-2.6-7.4-8h0Z"/>
    <path class="cls-2" d="M98.3,186.6h4.4l1.6,6.8c.4,1.7.7,3.3,1.2,4.9h0c.4-1.7.7-3.3,1.2-4.9l1.6-6.8h4.2l-4.6,15.6h-5l-4.6-15.6h0Z"/>
    <path class="cls-2" d="M111.8,200c0-1.4,1-2.5,2.4-2.5s2.4,1.1,2.4,2.5-1,2.5-2.4,2.5-2.4-1.1-2.4-2.5Z"/>
    <path class="cls-2" d="M127.3,186.6h5l4.8,15.6h-4.4l-1.8-7.6c-.4-1.5-.8-3.4-1.2-4.9h0c-.3,1.6-.7,3.5-1.1,4.9l-1.8,7.6h-4.2l4.8-15.6h0ZM126,195.8h7.6v3.2h-7.6v-3.2Z"/>
    <path class="cls-2" d="M138.3,186.6h4.6c4.8,0,8,2.2,8,7.7s-3.3,7.9-7.8,7.9h-4.8v-15.6ZM142.7,198.9c2.3,0,4-.9,4-4.6s-1.8-4.4-4-4.4h-.2v9h.2Z"/>
    <path class="cls-2" d="M153.7,186.6h4.1v5.8h4.7v-5.8h4.1v15.6h-4.1v-6.2h-4.7v6.2h-4.1v-15.6Z"/>
    <path class="cls-2" d="M170.1,186.6h4.1v15.6h-4.1v-15.6Z"/>
    <path class="cls-2" d="M182.5,186.6h10.2v3.5h-6v3h5.2v3.5h-5.2v5.7h-4.1v-15.6h0Z"/>
    <path class="cls-2" d="M194.4,194.4c0-5.1,2.9-8,7.2-8s7.2,2.9,7.2,8-2.9,8.2-7.2,8.2-7.2-3-7.2-8.2ZM204.7,194.4c0-2.8-1.2-4.5-3-4.5s-3,1.6-3,4.5,1.2,4.6,3,4.6,3-1.8,3-4.6Z"/>
    <path class="cls-2" d="M211.7,186.6h5.9c3.4,0,6.2,1.1,6.2,5s-2.9,5.3-6.2,5.3h-1.8v5.2h-4.1v-15.6h0ZM217.3,193.8c1.6,0,2.5-.7,2.5-2.1s-.9-1.8-2.5-1.8h-1.5v3.8h1.5ZM216.9,195.9l2.8-2.7,5.1,9h-4.6l-3.2-6.3h0Z"/>
    <path class="cls-2" d="M229.3,190.1h-4.1v-3.5h12.4v3.5h-4.1v12.1h-4.1v-12.1h0Z"/>
    <path class="cls-2" d="M239.8,194.7v-8.1h4.1v8.5c0,2.8.7,3.8,2.3,3.8s2.4-1,2.4-3.8v-8.5h4v8.1c0,5.3-2,7.8-6.4,7.8s-6.5-2.5-6.5-7.8Z"/>
    <path class="cls-2" d="M256,186.6h4.2l3.5,7,1.5,3.5h0c-.2-1.7-.5-4-.5-6v-4.5h3.9v15.6h-4.2l-3.5-7-1.5-3.5h0c.2,1.8.5,4,.5,6v4.5h-3.9v-15.6h0Z"/>
    <path class="cls-2" d="M274.9,186.6h5l4.8,15.6h-4.4l-1.8-7.6c-.4-1.5-.8-3.4-1.2-4.9h0c-.3,1.6-.7,3.5-1.1,4.9l-1.8,7.6h-4.2l4.8-15.6h0ZM273.6,195.8h7.6v3.2h-7.6v-3.2Z"/>
    <path class="cls-2" d="M290.7,186.6h4.6c4.8,0,8,2.2,8,7.7s-3.3,7.9-7.8,7.9h-4.8v-15.6ZM295.1,198.9c2.3,0,4-.9,4-4.6s-1.8-4.4-4-4.4h-.2v9h.2Z"/>
    <path class="cls-2" d="M306.1,186.6h4.1v15.6h-4.1v-15.6Z"/>
    <path class="cls-2" d="M311.7,186.6h4.4l1.6,6.8c.4,1.7.7,3.3,1.2,4.9h0c.4-1.7.7-3.3,1.2-4.9l1.6-6.8h4.2l-4.6,15.6h-5l-4.6-15.6h0Z"/>
    <path class="cls-2" d="M327.2,186.6h4.1v15.6h-4.1v-15.6Z"/>
    <path class="cls-2" d="M334.8,186.6h4.2l3.5,7,1.5,3.5h0c-.2-1.7-.5-4-.5-6v-4.5h3.9v15.6h-4.2l-3.5-7-1.5-3.5h0c.2,1.8.5,4,.5,6v4.5h-3.9v-15.6h0Z"/>
    <path class="cls-2" d="M353.7,186.6h5l4.8,15.6h-4.4l-1.8-7.6c-.4-1.5-.8-3.4-1.2-4.9h0c-.3,1.6-.7,3.5-1.1,4.9l-1.8,7.6h-4.2l4.8-15.6h0ZM352.3,195.8h7.6v3.2h-7.6v-3.2Z"/>
  </g>
  <g>
    <path class="cls-2" d="M145,177.1l1.2-1.2c.7.5,1.5.8,2.3.8s1.3-.3,1.3-.8-.5-.6-1.3-.9l-1.2-.4c-1-.3-1.9-1-1.9-2.1s1.4-2.3,3.3-2.3,2.2.4,3,1l-1.1,1.1c-.6-.4-1.2-.6-1.9-.6s-1.2.2-1.2.7.6.6,1.4.9l1.2.4c1.1.4,1.8,1,1.8,2.1s-1.3,2.4-3.5,2.4-2.5-.4-3.4-1.1h0Z"/>
    <path class="cls-2" d="M153.5,170.3h2.1v3h3.2v-3h2.1v7.8h-2.1v-3.3h-3.2v3.3h-2.1v-7.8Z"/>
    <path class="cls-2" d="M162.7,174.2c0-2.5,1.7-4,4.2-4s4.2,1.5,4.2,4-1.7,4.1-4.2,4.1-4.2-1.5-4.2-4.1ZM169,174.2c0-1.6-.8-2.5-2.1-2.5s-2.1.9-2.1,2.5.8,2.6,2.1,2.6,2.1-1,2.1-2.6Z"/>
    <path class="cls-2" d="M174.3,171.8h-2.6v-1.5h7.2v1.5h-2.6v6.3h-2.1v-6.3h0Z"/>
    <path class="cls-2" d="M179.6,174.3c0-2.6,2-4.1,4.4-4.1s2.2.5,2.8,1l-1.1,1.1c-.5-.4-1-.6-1.6-.6-1.3,0-2.3.9-2.3,2.5s.9,2.5,2.2,2.5,1.4-.3,1.8-.7l1.1,1.1c-.8.8-1.8,1.1-3,1.1-2.4,0-4.3-1.4-4.3-4h0Z"/>
    <path class="cls-2" d="M188.3,170.3h3.3c2,0,3.6.6,3.6,2.4s-1.6,2.6-3.6,2.6h-1.2v2.8h-2.1v-7.8h0ZM191.5,173.9c1.1,0,1.7-.4,1.7-1.2s-.6-1-1.7-1h-1.1v2.2h1.1ZM191.3,174.9l1.5-1.1,3,4.4h-2.3l-2.1-3.3h0Z"/>
    <path class="cls-2" d="M197,170.3h5.8v1.5h-3.7v1.6h3.2v1.5h-3.2v1.8h3.9v1.5h-6v-7.8h0Z"/>
    <path class="cls-2" d="M206.7,171.8h-2.6v-1.5h7.2v1.5h-2.6v6.3h-2.1v-6.3h0Z"/>
    <path class="cls-2" d="M212.8,170.3h5.8v1.5h-3.7v1.6h3.2v1.5h-3.2v1.8h3.9v1.5h-6v-7.8h0Z"/>
    <path class="cls-2" d="M223,174.5h3.5v1.2h-3.5v-1.2Z"/>
    <path class="cls-2" d="M230.2,177.1l1.2-1.2c.7.5,1.5.8,2.3.8s1.3-.3,1.3-.8-.5-.6-1.3-.9l-1.2-.4c-1-.3-1.9-1-1.9-2.1s1.4-2.3,3.3-2.3,2.2.4,3,1l-1.1,1.1c-.6-.4-1.2-.6-1.9-.6s-1.2.2-1.2.7.6.6,1.4.9l1.2.4c1.1.4,1.8,1,1.8,2.1s-1.3,2.4-3.5,2.4-2.5-.4-3.4-1.1h0Z"/>
    <path class="cls-2" d="M238.3,174.2c0-2.5,1.7-4,4.2-4s4.2,1.5,4.2,4-1.7,4.1-4.2,4.1-4.2-1.5-4.2-4.1ZM244.6,174.2c0-1.6-.8-2.5-2.1-2.5s-2.1.9-2.1,2.5.8,2.6,2.1,2.6,2.1-1,2.1-2.6Z"/>
    <path class="cls-2" d="M248.5,170.3h2.1v7.8h-2.1v-7.8Z"/>
    <path class="cls-2" d="M252.8,170.3h2.1v6.3h3.7v1.5h-5.8v-7.8h0Z"/>
    <path class="cls-2" d="M260.2,170.3h2.2l2.4,3.9.9,1.7h0c0-.8-.3-1.9-.3-2.8v-2.8h2v7.8h-2.2l-2.4-3.9-.9-1.7h0c0,.9.3,1.9.3,2.8v2.8h-2v-7.8Z"/>
    <path class="cls-2" d="M271.4,170.3h2.5l2.9,7.8h-2.2l-1.2-4c-.3-.8-.5-1.7-.8-2.5h0c-.2.8-.5,1.7-.7,2.5l-1.2,4h-2.2l2.9-7.8h0ZM270.4,174.9h4.5v1.4h-4.5v-1.4Z"/>
    <path class="cls-2" d="M277.7,170.3h2.1v7.8h-2.1v-7.8Z"/>
    <path class="cls-2" d="M282,170.3h2.1v6.3h3.7v1.5h-5.8v-7.8h0Z"/>
    <path class="cls-2" d="M289.4,170.3h2.1v7.8h-2.1v-7.8Z"/>
    <path class="cls-2" d="M293.7,170.3h2.2l2.4,3.9.9,1.7h0c0-.8-.3-1.9-.3-2.8v-2.8h2v7.8h-2.2l-2.4-3.9-.9-1.7h0c0,.9.3,1.9.3,2.8v2.8h-2v-7.8Z"/>
    <path class="cls-2" d="M302.7,174.3c0-2.6,2-4.1,4.5-4.1s2.3.5,2.9,1l-1.1,1.1c-.5-.4-1-.6-1.8-.6-1.4,0-2.5.9-2.5,2.5s.9,2.5,2.6,2.5.8,0,1-.2v-1.4h-1.5v-1.4h3.4v3.6c-.6.5-1.8,1-3.1,1-2.6,0-4.5-1.4-4.5-4h0Z"/>
  </g>
  <g>
    <polygon class="cls-3" points="55.3 79 56.8 80.3 58.2 79.6 59.3 80.6 60.8 79.9 62.3 81 61.1 85.6 67.8 91.3 69.8 90.4 70.9 91.2 72.7 89.1 74.2 90.4 72.7 92.2 79.8 98.2 92.2 103 98.2 108.1 102.9 102.5 63.5 69.3 55.3 79"/>
    <polygon class="cls-3" points="71.6 59.6 73.1 60.8 72.7 62.3 73.8 63.3 73.4 64.9 74.8 66.1 79.1 64.1 85.8 69.8 85.3 72 86.3 72.8 84.5 75 86 76.3 87.6 74.4 94.7 80.4 101.6 91.8 107.6 96.9 102.9 102.5 63.5 69.3 71.6 59.6"/>
  </g>
  <polyline class="cls-3" points="81.1 65.8 84.5 68.7 93.5 59.7 83 49.2 79.6 52.6 86.7 59"/>
</svg>